<svg xmlns="http://www.w3.org/2000/svg" viewBox="0 0 1200 630" width="1200" height="630">
  <defs>
    <linearGradient id="bg" x1="0" y1="0" x2="1" y2="1">
      <stop offset="0" stop-color="#1a1426"/>
      <stop offset="1" stop-color="#2d1b4e"/>
    </linearGradient>
    <radialGradient id="aurora1" cx="20%" cy="25%" r="50%">
      <stop offset="0" stop-color="#7c3aed" stop-opacity="0.7"/>
      <stop offset="1" stop-color="#7c3aed" stop-opacity="0"/>
    </radialGradient>
    <radialGradient id="aurora2" cx="80%" cy="20%" r="45%">
      <stop offset="0" stop-color="#c026d3" stop-opacity="0.6"/>
      <stop offset="1" stop-color="#c026d3" stop-opacity="0"/>
    </radialGradient>
    <radialGradient id="aurora3" cx="75%" cy="80%" r="50%">
      <stop offset="0" stop-color="#14b8a6" stop-opacity="0.6"/>
      <stop offset="1" stop-color="#14b8a6" stop-opacity="0"/>
    </radialGradient>
    <linearGradient id="text" x1="0" y1="0" x2="1" y2="0">
      <stop offset="0" stop-color="#a78bfa"/>
      <stop offset="0.5" stop-color="#f0abfc"/>
      <stop offset="1" stop-color="#5eead4"/>
    </linearGradient>
  </defs>
  <rect width="1200" height="630" fill="url(#bg)"/>
  <rect width="1200" height="630" fill="url(#aurora1)"/>
  <rect width="1200" height="630" fill="url(#aurora2)"/>
  <rect width="1200" height="630" fill="url(#aurora3)"/>
  <g transform="translate(120 200)">
    <rect x="0" y="0" width="86" height="86" rx="20" fill="rgba(255,255,255,0.08)" stroke="rgba(255,255,255,0.18)"/>
    <path d="M20 34 L66 34 L66 44 L80 28 L66 12 L66 22 L20 22 Z" fill="url(#text)"/>
    <circle cx="20" cy="28" r="11" fill="#5eead4"/>
    <circle cx="80" cy="28" r="11" fill="#f0abfc"/>
  </g>
  <text x="230" y="270" font-family="Sora, system-ui, sans-serif" font-size="72" font-weight="800" fill="url(#text)">ArbiTech</text>
  <text x="120" y="360" font-family="Inter, system-ui, sans-serif" font-size="36" font-weight="600" fill="#f5f1ff">Achetez ici. Vendez là-bas. Empochez la différence.</text>
  <text x="120" y="420" font-family="Inter, system-ui, sans-serif" font-size="26" fill="#c4b5fd">Arbitrage crypto &amp; P2P FCFA — Binance · Bybit · OKX · KuCoin</text>
  <g transform="translate(120 480)" font-family="Inter, system-ui, sans-serif" font-size="20" fill="#a78bfa">
    <rect x="0" y="0" width="220" height="44" rx="22" fill="rgba(124,58,237,0.18)" stroke="rgba(124,58,237,0.4)"/>
    <text x="110" y="29" text-anchor="middle">Temps réel</text>
    <rect x="240" y="0" width="220" height="44" rx="22" fill="rgba(192,38,211,0.18)" stroke="rgba(192,38,211,0.4)"/>
    <text x="350" y="29" text-anchor="middle">100% automatique</text>
    <rect x="480" y="0" width="240" height="44" rx="22" fill="rgba(20,184,166,0.18)" stroke="rgba(20,184,166,0.4)"/>
    <text x="600" y="29" text-anchor="middle">Simple comme une recette</text>
  </g>
</svg>
